<svg width="28" height="28" viewBox="0 0 28 28" fill="none" xmlns="http://www.w3.org/2000/svg">
<path d="M4.66699 13.6799C4.66699 13.237 4.99617 12.8709 5.42326 12.8129L5.54199 12.8049L23.042 12.8049C23.5252 12.8049 23.917 13.1967 23.917 13.6799C23.917 14.1229 23.5878 14.489 23.1607 14.5469L23.042 14.5549L5.54199 14.5549C5.05874 14.5549 4.66699 14.1632 4.66699 13.6799Z" fill="white"/>
<path d="M15.367 7.27162C15.0245 6.93065 15.0234 6.37663 15.3643 6.03419C15.6743 5.72288 16.1603 5.69359 16.5034 5.94702L16.6018 6.03152L23.6601 13.0595C23.9723 13.3704 24.0007 13.8582 23.7453 14.2013L23.6601 14.2996L16.6018 21.3287C16.2594 21.6697 15.7054 21.6686 15.3644 21.3262C15.0544 21.0149 15.0271 20.5287 15.282 20.1867L15.3669 20.0887L21.8023 13.6792L15.367 7.27162Z" fill="white"/>
</svg>
