<svg width="28" height="27" viewBox="0 0 28 27" fill="none" xmlns="http://www.w3.org/2000/svg">
<path d="M3.5 24.75H24.5" stroke="#6A5AE0" stroke-width="1.5" stroke-linecap="round" stroke-linejoin="round"/>
<path d="M3.5 19.125C3.5 20.1857 3.5 20.716 3.84171 21.0455C4.18342 21.375 4.73339 21.375 5.83333 21.375C6.93328 21.375 7.48325 21.375 7.82496 21.0455C8.16667 20.716 8.16667 20.1857 8.16667 19.125V12.375C8.16667 11.3143 8.16667 10.784 7.82496 10.4545C7.48325 10.125 6.93328 10.125 5.83333 10.125C4.73339 10.125 4.18342 10.125 3.84171 10.4545C3.5 10.784 3.5 11.3143 3.5 12.375V14.625" stroke="#6A5AE0" stroke-width="1.5" stroke-linecap="round"/>
<path d="M11.667 7.875C11.667 6.81434 11.667 6.28401 12.0087 5.9545C12.3504 5.625 12.9004 5.625 14.0003 5.625C15.1003 5.625 15.6502 5.625 15.992 5.9545C16.3337 6.28401 16.3337 6.81434 16.3337 7.875V19.125C16.3337 20.1857 16.3337 20.716 15.992 21.0455C15.6502 21.375 15.1003 21.375 14.0003 21.375C12.9004 21.375 12.3504 21.375 12.0087 21.0455C11.667 20.716 11.667 20.1857 11.667 19.125V7.875Z" stroke="#6A5AE0" stroke-width="1.5"/>
<path d="M24.4997 12.375V19.125C24.4997 20.1857 24.4997 20.716 24.158 21.0455C23.8163 21.375 23.2663 21.375 22.1663 21.375C21.0664 21.375 20.5164 21.375 20.1747 21.0455C19.833 20.716 19.833 20.1857 19.833 19.125V4.5C19.833 3.43934 19.833 2.90901 20.1747 2.5795C20.5164 2.25 21.0664 2.25 22.1663 2.25C23.2663 2.25 23.8163 2.25 24.158 2.5795C24.4997 2.90901 24.4997 3.43934 24.4997 4.5V7.875" stroke="#6A5AE0" stroke-width="1.5" stroke-linecap="round"/>
</svg>
