<svg width="15" height="18" viewBox="0 0 15 18" fill="none" xmlns="http://www.w3.org/2000/svg">
<path d="M12.1055 5.9707C12.3748 5.7548 12.7685 5.79806 12.9844 6.06738C13.9848 7.31555 14.584 8.90136 14.584 10.625C14.5838 14.6519 11.319 17.916 7.29199 17.916C3.26502 17.916 0.000165094 14.6519 0 10.625C0 8.90136 0.599143 7.31555 1.59961 6.06738C1.81551 5.79806 2.20919 5.7548 2.47852 5.9707C2.74758 6.18658 2.79085 6.57938 2.5752 6.84863C1.74595 7.88308 1.25 9.19562 1.25 10.625C1.25017 13.9616 3.95537 16.666 7.29199 16.666C10.6286 16.666 13.3338 13.9616 13.334 10.625C13.334 9.19562 12.838 7.88308 12.0088 6.84863C11.7931 6.57938 11.8364 6.18658 12.1055 5.9707ZM7.29199 0C7.45774 7.98433e-06 7.61717 0.0654153 7.73438 0.182617L11.0674 3.51562C11.3115 3.7597 11.3115 4.15631 11.0674 4.40039C10.8234 4.6442 10.4276 4.64409 10.1836 4.40039L7.91699 2.13379V12.291C7.91699 12.6362 7.63716 12.916 7.29199 12.916C6.94681 12.916 6.66699 12.6362 6.66699 12.291V2.13379L4.40039 4.40039C4.15634 4.64409 3.76058 4.6442 3.5166 4.40039C3.27252 4.15631 3.27253 3.7597 3.5166 3.51562L6.84961 0.182617C6.96682 0.0654066 7.12623 8.01974e-07 7.29199 0Z" fill="white"/>
</svg>
