<svg width="15" height="17" viewBox="0 0 15 17" fill="none" xmlns="http://www.w3.org/2000/svg">
<path d="M7.07031 0C9.62759 0 11.6855 2.01272 11.6855 4.49707V5.77441C13.1207 6.22238 14.1668 7.52154 14.167 9.07324V13.1875C14.167 15.1087 12.574 16.6669 10.6104 16.667H3.55762C1.59308 16.667 0 15.1087 0 13.1875V9.07324C0.000191835 7.52154 1.04713 6.22238 2.48145 5.77441V4.49707C2.48991 2.01283 4.54705 0.00017002 7.07031 0ZM7.0791 9.4873C6.67276 9.4873 6.34296 9.80969 6.34277 10.207V12.0459C6.34284 12.4516 6.67269 12.7744 7.0791 12.7744C7.49398 12.7744 7.82415 12.4516 7.82422 12.0459V10.207C7.82404 9.80969 7.49391 9.48731 7.0791 9.4873ZM7.08789 1.44922C5.36892 1.44922 3.97136 2.80767 3.96289 4.48047V5.59473H10.2041V4.49707C10.2041 2.8161 8.80671 1.44939 7.08789 1.44922Z" fill="#9E9E9E"/>
</svg>
