<svg width="15" height="10" viewBox="0 0 15 10" fill="none" xmlns="http://www.w3.org/2000/svg">
<path d="M6.61816 10C6.25726 9.98807 5.49902 9.67117 5.49902 9.66016C4.27902 9.14824 1.92492 7.60332 0.837891 6.50195L0.522461 6.17188C0.439827 6.08235 0.346772 5.97619 0.289062 5.89355C0.0964211 5.63848 8.3465e-05 5.32247 0 5.00684C0 4.65451 0.108134 4.32656 0.3125 4.05859L0.637695 3.70801L0.709961 3.63281C1.69644 2.5634 4.27196 0.815399 5.61914 0.280273L5.82227 0.202148C6.06704 0.114414 6.41021 0.00963833 6.61816 0C6.88259 9.72582e-06 7.13517 0.0615451 7.37598 0.182617C7.67688 0.352435 7.91708 0.620753 8.0498 0.936523C8.13435 1.15516 8.26758 1.81131 8.26758 1.82324C8.38922 2.48498 8.45959 3.52907 8.46973 4.69922L8.4707 4.99414C8.4707 6.22029 8.39916 7.33853 8.29102 8.06738L8.19629 8.52051C8.14358 8.76048 8.0742 9.03427 8.00195 9.17383C7.73741 9.6842 7.21965 10 6.66602 10H6.61816ZM10.665 5.99219C10.1223 5.99219 9.68164 5.54801 9.68164 5C9.68184 4.45124 10.1224 4.00781 10.665 4.00781L13.7471 3.73535C14.4388 3.73535 14.9998 4.30162 15 5C15 5.69855 14.4389 6.26562 13.7471 6.26562L10.665 5.99219Z" fill="#6A5AE0"/>
</svg>
