<svg width="22" height="22" viewBox="0 0 22 22" fill="none" xmlns="http://www.w3.org/2000/svg">
<path d="M4.75 20.75C6.61748 20.75 8.18606 19.4702 8.62657 17.7399C8.76283 17.2047 9.19771 16.75 9.75 16.75H16.75M4.75 20.75C2.54086 20.75 0.75 18.9591 0.75 16.75V3.75C0.75 2.09315 2.09315 0.75 3.75 0.75H13.75C15.4069 0.75 16.75 2.09315 16.75 3.75V16.75M4.75 20.75H16.75C18.6175 20.75 20.1861 19.4702 20.6266 17.7399C20.7628 17.2047 20.3023 16.75 19.75 16.75H16.75M12.75 5.75H4.75M8.75 10.75H4.75" stroke="white" stroke-width="1.5" stroke-linecap="round"/>
</svg>
