<svg width="50" height="50" viewBox="0 0 50 50" fill="none" xmlns="http://www.w3.org/2000/svg">
<rect width="50" height="50" rx="12" fill="url(#paint0_linear_183_5558)"/>
<path fill-rule="evenodd" clip-rule="evenodd" d="M24.627 12.6119C20.7425 13.0907 17.47 15.6315 16.2914 19.0834C15.8439 20.3939 15.833 20.5555 15.833 25.8382V29.5831C15.833 30.5038 16.5798 31.2503 17.5011 31.2503H20.8298C21.7511 31.2503 22.4979 30.5038 22.4979 29.5831V26.2278C22.4979 21.5594 22.524 21.1553 22.8676 20.4953C23.5719 19.143 24.7213 18.6897 27.4504 18.6883L27.4938 18.6883C28.4154 18.6877 29.1629 19.4343 29.1629 20.3555V20.6394C29.1629 22.3373 29.1077 22.69 28.7395 23.3499C28.1796 24.3525 26.7751 25.0548 25.3301 25.0548C24.7864 25.0548 24.3481 25.5001 24.3571 26.0435L24.4263 30.2211C24.4351 30.7524 24.8533 31.1865 25.3842 31.2153C26.7416 31.2888 28.8698 30.8309 30.3663 30.1432C32.5411 29.144 34.4232 27.1743 35.3174 24.9621C35.7112 23.9878 35.735 23.6478 35.7913 18.214L35.8329 14.1844C35.8425 13.2538 35.088 12.4955 34.1568 12.5L30.5164 12.5176C27.5827 12.5318 24.9325 12.5743 24.627 12.6119ZM15.833 37.4995C15.833 38.4202 16.5798 39.1667 17.5011 39.1667H20.8298C21.7511 39.1667 22.4979 38.4202 22.4979 37.4995V34.6384C22.4979 33.7176 21.7511 32.9712 20.8298 32.9712H17.5011C16.5798 32.9712 15.833 33.7176 15.833 34.6384V37.4995Z" fill="white"/>
<defs>
<linearGradient id="paint0_linear_183_5558" x1="50" y1="50" x2="-9.49551" y2="32.7498" gradientUnits="userSpaceOnUse">
<stop stop-color="#4D5DFA"/>
<stop offset="1" stop-color="#7784FF"/>
</linearGradient>
</defs>
</svg>
