<svg width="25" height="28" viewBox="0 0 25 28" fill="none" xmlns="http://www.w3.org/2000/svg">
<path d="M24.1925 11.7106C23.6141 12.585 22.6501 13.1137 21.8282 13.7237C20.7222 14.5168 19.9307 14.9133 19.3117 15.5538C20.5091 17.7602 22.2341 19.9258 22.3558 22.5287C21.7064 25.8839 18.1346 22.671 16.6227 21.7051C15.7095 21.0544 14.4106 20.1902 13.812 19.997C13.2437 20.6884 11.5289 24.674 10.2605 26.372C9.51972 27.5412 7.78457 28.8121 6.69882 27.3277C5.93779 25.6399 6.49588 23.6979 6.51618 21.9085C6.58721 20.8206 6.68868 19.7225 6.56691 18.6244C6.55676 18.5634 6.53647 18.4821 6.51618 18.421C6.49588 18.3804 6.46544 18.3397 6.44515 18.299C6.4147 18.2787 6.38426 18.2584 6.34367 18.2482C5.56235 18.1364 1.91953 17.1806 0.63084 15.9402C-0.150489 15.2692 -0.282402 13.9169 0.671429 13.3373C2.72115 12.3308 5.09558 12.0664 7.33809 11.7207C7.55118 9.90077 7.74398 8.0808 7.97736 6.271C8.32236 4.44087 8.39339 2.47856 9.15443 0.760274C11.0316 -1.55789 12.7465 2.02103 13.4467 3.56648C14.1671 5.15259 14.8876 6.7387 15.4964 8.37566C15.5573 8.60951 15.6587 8.85352 15.7704 9.10771C15.8008 9.10771 15.8312 9.09754 15.8718 9.10771C18.2868 8.83319 20.8947 8.5485 23.1981 9.50424C24.0707 9.80926 24.6998 10.8667 24.2026 11.7411L24.1925 11.7106ZM22.2036 11.1005C20.2757 10.338 17.0489 10.9277 15.3543 10.9683C15.3442 10.9683 15.334 10.9582 15.3239 10.948C15.0905 11.009 14.8267 10.9887 14.6136 10.8565C14.1773 10.6125 14.1367 10.0634 13.9642 9.63641C13.0814 7.32841 11.9043 4.17652 10.5852 2.28538C9.97635 4.90857 9.51972 8.88403 9.14428 12.3918C9.16458 12.9815 8.60648 13.3679 8.08898 13.317C8.0078 13.3882 7.90633 13.4594 7.78457 13.5C6.39441 13.744 4.15189 14.0694 2.13262 14.6998C2.51821 14.9743 2.94439 15.2081 3.37056 15.4013C3.37056 15.4013 3.37056 15.4013 3.39086 15.4013C4.18234 15.7165 5.00425 15.9504 5.83632 16.1741C6.47559 16.3672 7.19603 16.4181 7.72368 16.8756C8.43398 17.5263 8.49487 18.5431 8.51516 19.448C8.53545 21.5424 8.1803 23.6268 8.23104 25.8738C8.43398 25.7111 8.47457 25.5789 8.72825 25.2942C9.98649 23.4234 10.9099 21.3391 11.9753 19.3564C12.2189 18.9294 12.503 18.4821 12.9596 18.2685C13.7917 17.8212 14.7151 18.2584 15.4659 18.6752C17.191 19.6615 18.713 20.9731 20.4583 21.9186C20.1742 20.6477 18.6014 18.0652 17.5258 16.0927C17.059 14.8218 18.226 13.8762 19.1798 13.256C20.4177 12.3918 21.402 11.8021 22.2239 11.0904L22.2036 11.1005Z" fill="#6949FF"/>
</svg>
