<svg width="32" height="32" viewBox="0 0 32 32" fill="none" xmlns="http://www.w3.org/2000/svg">
<path fill-rule="evenodd" clip-rule="evenodd" d="M13.3337 5.33331H18.667C23.6953 5.33331 26.2095 5.33331 27.7716 6.89541C29.3337 8.45751 29.3337 10.9717 29.3337 16C29.3337 21.0283 29.3337 23.5425 27.7716 25.1045C26.2095 26.6666 23.6953 26.6666 18.667 26.6666H13.3337C8.30534 26.6666 5.79119 26.6666 4.22909 25.1045C2.66699 23.5425 2.66699 21.0283 2.66699 16C2.66699 10.9717 2.66699 8.45751 4.22909 6.89541C5.79119 5.33331 8.30534 5.33331 13.3337 5.33331ZM17.667 12C17.667 11.4477 18.1147 11 18.667 11H25.3337C25.8859 11 26.3337 11.4477 26.3337 12C26.3337 12.5523 25.8859 13 25.3337 13H18.667C18.1147 13 17.667 12.5523 17.667 12ZM19.0003 16C19.0003 15.4477 19.448 15 20.0003 15H25.3337C25.8859 15 26.3337 15.4477 26.3337 16C26.3337 16.5523 25.8859 17 25.3337 17H20.0003C19.448 17 19.0003 16.5523 19.0003 16ZM20.3337 20C20.3337 19.4477 20.7814 19 21.3337 19H25.3337C25.8859 19 26.3337 19.4477 26.3337 20C26.3337 20.5523 25.8859 21 25.3337 21H21.3337C20.7814 21 20.3337 20.5523 20.3337 20ZM14.667 12C14.667 13.4727 13.4731 14.6666 12.0003 14.6666C10.5276 14.6666 9.33366 13.4727 9.33366 12C9.33366 10.5272 10.5276 9.33331 12.0003 9.33331C13.4731 9.33331 14.667 10.5272 14.667 12ZM12.0003 22.6666C17.3337 22.6666 17.3337 21.4727 17.3337 20C17.3337 18.5272 14.9458 17.3333 12.0003 17.3333C9.05481 17.3333 6.66699 18.5272 6.66699 20C6.66699 21.4727 6.66699 22.6666 12.0003 22.6666Z" fill="#6949FF"/>
</svg>
