<svg width="32" height="32" viewBox="0 0 32 32" fill="none" xmlns="http://www.w3.org/2000/svg">
<path d="M20.6663 10C20.6663 12.5774 18.577 14.6667 15.9997 14.6667C13.4223 14.6667 11.333 12.5774 11.333 10C11.333 7.42271 13.4223 5.33337 15.9997 5.33337C18.577 5.33337 20.6663 7.42271 20.6663 10Z" fill="#6949FF"/>
<path d="M24 22C24 24.5774 20.4183 26.6667 16 26.6667C11.5817 26.6667 8 24.5774 8 22C8 19.4227 11.5817 17.3334 16 17.3334C20.4183 17.3334 24 19.4227 24 22Z" fill="#6949FF"/>
<path d="M9.49639 6.66663C9.73301 6.66663 9.964 6.68984 10.1871 6.73404C9.64365 7.69923 9.33366 8.8134 9.33366 9.99996C9.33366 11.1576 9.62874 12.2464 10.1478 13.1951C9.93692 13.2344 9.71915 13.255 9.49639 13.255C7.6105 13.255 6.08169 11.7801 6.08169 9.9608C6.08169 8.14148 7.6105 6.66663 9.49639 6.66663Z" fill="#6949FF"/>
<path d="M7.26344 25.3146C6.50622 24.4094 6.00033 23.2986 6.00033 22C6.00033 20.741 6.47576 19.6586 7.1947 18.7689C4.65512 18.9659 2.66699 20.3549 2.66699 22.0391C2.66699 23.7392 4.69006 25.1384 7.26344 25.3146Z" fill="#6949FF"/>
<path d="M22.6669 9.99996C22.6669 11.1576 22.3718 12.2464 21.8528 13.1951C22.0636 13.2344 22.2814 13.255 22.5041 13.255C24.39 13.255 25.9188 11.7801 25.9188 9.9608C25.9188 8.14148 24.39 6.66663 22.5041 6.66663C22.2675 6.66663 22.0365 6.68984 21.8135 6.73404C22.3569 7.69923 22.6669 8.8134 22.6669 9.99996Z" fill="#6949FF"/>
<path d="M24.7371 25.3146C27.3105 25.1384 29.3335 23.7392 29.3335 22.0391C29.3335 20.3549 27.3454 18.9659 24.8058 18.7689C25.5248 19.6586 26.0002 20.741 26.0002 22C26.0002 23.2986 25.4943 24.4094 24.7371 25.3146Z" fill="#6949FF"/>
</svg>
