<svg width="32" height="32" viewBox="0 0 32 32" fill="none" xmlns="http://www.w3.org/2000/svg">
<circle cx="12.0013" cy="7.99996" r="5.33333" fill="#6949FF"/>
<ellipse cx="12.0013" cy="22.6679" rx="9.33333" ry="5.33333" fill="#6949FF"/>
<path d="M27.9992 22.6673C27.9992 24.8764 25.2851 26.6672 21.9714 26.6672C22.9477 25.6001 23.619 24.2607 23.619 22.6691C23.619 21.0757 22.9461 19.735 21.968 18.6673C25.2817 18.6673 27.9992 20.4581 27.9992 22.6673Z" fill="#6949FF"/>
<path d="M23.9992 8.00098C23.9992 10.2101 22.2083 12.001 19.9992 12.001C19.5175 12.001 19.0556 11.9158 18.6279 11.7597C19.2587 10.6503 19.619 9.36696 19.619 7.99949C19.619 6.63303 19.2592 5.35058 18.6293 4.24169C19.0566 4.08594 19.518 4.00098 19.9992 4.00098C22.2083 4.00098 23.9992 5.79184 23.9992 8.00098Z" fill="#6949FF"/>
</svg>
