<svg width="28" height="38" viewBox="0 0 28 38" fill="none" xmlns="http://www.w3.org/2000/svg">
<path fill-rule="evenodd" clip-rule="evenodd" d="M12.3116 0.156726C6.87323 0.827005 2.29173 4.38415 0.641718 9.21681C0.0152509 11.0515 0 11.2778 0 18.6735V23.9163C0 25.2054 1.04558 26.2504 2.33536 26.2504H6.99554C8.28533 26.2504 9.3309 25.2054 9.3309 23.9163V19.2189C9.3309 12.6831 9.36743 12.1174 9.84849 11.1934C10.8345 9.30017 12.4435 8.66555 16.2643 8.66362L16.325 8.66358C17.6154 8.66281 18.6618 9.70802 18.6618 10.9976V11.3951C18.6618 13.7722 18.5846 14.2661 18.069 15.1898C17.2852 16.5935 15.319 17.5767 13.296 17.5767C12.5347 17.5767 11.9212 18.2002 11.9338 18.9609L12.0306 24.8096C12.0429 25.5534 12.6284 26.1611 13.3717 26.2015C15.2721 26.3043 18.2515 25.6632 20.3465 24.7004C23.3913 23.3016 26.0262 20.5441 27.2781 17.4469C27.8294 16.0829 27.8628 15.6069 27.9416 7.99961L27.9999 2.35813C28.0133 1.0553 26.9569 -0.00628259 25.6533 2.79901e-05L20.5568 0.0246996C16.4496 0.0444562 12.7393 0.103962 12.3116 0.156726ZM0 34.9993C0 36.2883 1.04558 37.3333 2.33536 37.3333H6.99554C8.28533 37.3333 9.3309 36.2883 9.3309 34.9993V30.9937C9.3309 29.7047 8.28533 28.6597 6.99554 28.6597H2.33536C1.04558 28.6597 0 29.7047 0 30.9938V34.9993Z" fill="white"/>
</svg>
